<svg xmlns="http://www.w3.org/2000/svg" viewBox="0 0 1600 1200" preserveAspectRatio="xMidYMid slice">
  <defs>
    <!-- deep base sky -->
    <linearGradient id="sky" x1="0" y1="0" x2="0" y2="1">
      <stop offset="0" stop-color="#1c0a13"/>
      <stop offset="0.45" stop-color="#0c0608"/>
      <stop offset="1" stop-color="#080406"/>
    </linearGradient>
    <!-- warm sunrise glow -->
    <radialGradient id="glow" cx="22%" cy="108%" r="62%">
      <stop offset="0" stop-color="#ffb478" stop-opacity="0.95"/>
      <stop offset="0.18" stop-color="#ff7448" stop-opacity="0.75"/>
      <stop offset="0.45" stop-color="#c8331f" stop-opacity="0.35"/>
      <stop offset="0.78" stop-color="#3a0e16" stop-opacity="0.1"/>
      <stop offset="1" stop-color="#0c0608" stop-opacity="0"/>
    </radialGradient>
    <!-- horizon haze -->
    <radialGradient id="haze" cx="55%" cy="92%" r="68%">
      <stop offset="0" stop-color="#ff9a64" stop-opacity="0.4"/>
      <stop offset="0.5" stop-color="#a02a2a" stop-opacity="0.12"/>
      <stop offset="1" stop-color="#0c0608" stop-opacity="0"/>
    </radialGradient>
    <!-- cool counter at top right -->
    <radialGradient id="cool" cx="92%" cy="-8%" r="55%">
      <stop offset="0" stop-color="#4a3070" stop-opacity="0.55"/>
      <stop offset="0.6" stop-color="#1a0e2a" stop-opacity="0.15"/>
      <stop offset="1" stop-color="#0c0608" stop-opacity="0"/>
    </radialGradient>
    <!-- organic ridge silhouette -->
    <linearGradient id="ridge" x1="0" y1="0" x2="0" y2="1">
      <stop offset="0" stop-color="#180809" stop-opacity="0.0"/>
      <stop offset="0.55" stop-color="#0a0407" stop-opacity="0.75"/>
      <stop offset="1" stop-color="#050203" stop-opacity="1"/>
    </linearGradient>
    <linearGradient id="ridgeBack" x1="0" y1="0" x2="0" y2="1">
      <stop offset="0" stop-color="#3a1418" stop-opacity="0"/>
      <stop offset="1" stop-color="#1a0608" stop-opacity="0.85"/>
    </linearGradient>
    <!-- atmospheric film grain -->
    <filter id="grain" x="0" y="0" width="100%" height="100%">
      <feTurbulence type="fractalNoise" baseFrequency="1.4" numOctaves="2" stitchTiles="stitch" seed="7"/>
      <feColorMatrix values="0 0 0 0 1  0 0 0 0 1  0 0 0 0 1  0 0 0 0.35 0"/>
    </filter>
    <!-- light leak blur -->
    <filter id="soft" x="-20%" y="-20%" width="140%" height="140%">
      <feGaussianBlur stdDeviation="40"/>
    </filter>
  </defs>

  <!-- base sky -->
  <rect width="1600" height="1200" fill="url(#sky)"/>

  <!-- cool counter glow -->
  <rect width="1600" height="1200" fill="url(#cool)"/>

  <!-- subtle sun disc, sharp-edged behind glow -->
  <g filter="url(#soft)" opacity="0.9">
    <circle cx="360" cy="1100" r="220" fill="#ffb074"/>
  </g>

  <!-- warm sunrise glow on top -->
  <rect width="1600" height="1200" fill="url(#glow)"/>
  <rect width="1600" height="1200" fill="url(#haze)" opacity="0.85"/>

  <!-- distant ridge -->
  <path d="M0,820 C 220,790 380,840 540,820 C 720,800 900,860 1080,840 C 1280,820 1440,860 1600,840 L 1600,1200 L 0,1200 Z" fill="url(#ridgeBack)"/>

  <!-- foreground ridge -->
  <path d="M0,940 C 180,895 340,975 520,945 C 700,915 880,995 1080,955 C 1280,915 1460,985 1600,950 L 1600,1200 L 0,1200 Z" fill="url(#ridge)"/>

  <!-- soft star particles in upper sky -->
  <g fill="#f0ede6" opacity="0.45">
    <circle cx="180" cy="120" r="0.9"/>
    <circle cx="420" cy="80" r="0.6"/>
    <circle cx="640" cy="160" r="1.1"/>
    <circle cx="880" cy="60" r="0.7"/>
    <circle cx="1080" cy="140" r="0.9"/>
    <circle cx="1280" cy="90" r="0.6"/>
    <circle cx="1440" cy="180" r="1.0"/>
    <circle cx="320" cy="240" r="0.5"/>
    <circle cx="760" cy="280" r="0.7"/>
    <circle cx="1180" cy="260" r="0.6"/>
  </g>

  <!-- film grain overlay -->
  <rect width="1600" height="1200" filter="url(#grain)" opacity="0.55" style="mix-blend-mode: overlay;"/>
</svg>
